<?xml version="1.0" standalone="no"?>
<!DOCTYPE svg PUBLIC "-//W3C//DTD SVG 20010904//EN"
 "http://www.w3.org/TR/2001/REC-SVG-20010904/DTD/svg10.dtd">
<svg version="1.0" xmlns="http://www.w3.org/2000/svg"
 width="2394.000000pt" height="582.000000pt" viewBox="0 0 2394.000000 582.000000"
 preserveAspectRatio="xMidYMid meet">
<metadata>
Created by potrace 1.16, written by Peter Selinger 2001-2019
</metadata>
<g transform="translate(0.000000,582.000000) scale(0.100000,-0.100000)"
fill="#000000" stroke="none">
<path d="M7547 5236 c-225 -81 -292 -383 -123 -552 72 -71 143 -97 251 -92 98
6 160 34 226 105 62 66 89 140 89 243 0 69 -4 86 -33 141 -36 71 -103 129
-176 154 -55 19 -183 19 -234 1z"/>
<path d="M11877 5235 c-224 -82 -290 -382 -122 -550 68 -69 124 -90 235 -90
79 0 103 4 142 23 141 70 222 242 184 392 -40 153 -158 241 -324 239 -42 0
-94 -7 -115 -14z"/>
<path d="M2391 5109 c-427 -45 -809 -228 -1108 -531 -155 -156 -231 -261 -319
-437 -144 -292 -201 -586 -191 -998 4 -193 9 -247 31 -350 105 -495 387 -897
816 -1164 593 -368 1417 -357 2003 27 448 294 715 720 792 1265 84 600 -66
1180 -408 1580 -148 172 -414 367 -633 462 -299 130 -643 181 -983 146z m494
-103 c464 -139 764 -582 877 -1297 20 -128 22 -180 22 -469 0 -285 -3 -342
-22 -465 -115 -732 -427 -1188 -902 -1316 -73 -20 -109 -23 -255 -24 -191 0
-274 16 -412 80 -158 73 -332 225 -440 386 -235 348 -357 861 -340 1429 26
868 340 1473 862 1659 119 43 181 51 355 47 144 -3 176 -7 255 -30z"/>
<path d="M19205 4644 c-88 -6 -179 -13 -202 -13 l-43 -1 0 -395 0 -395 -260 0
-260 0 0 -120 0 -120 255 0 255 0 0 -778 c0 -468 4 -811 10 -862 37 -306 183
-491 440 -556 82 -21 274 -24 350 -5 278 68 477 315 535 664 l6 37 -64 0 -64
0 -17 -90 c-41 -223 -110 -303 -275 -317 -185 -15 -336 67 -390 213 -38 101
-41 160 -41 937 l0 757 360 0 360 0 0 120 0 120 -365 0 -365 0 0 410 0 410
-32 -1 c-18 -1 -105 -8 -193 -15z"/>
<path d="M10590 3935 c-131 -26 -267 -83 -364 -152 l-48 -35 -58 31 c-189 101
-444 151 -660 131 -398 -38 -694 -234 -795 -527 -47 -137 -54 -295 -19 -423
55 -196 237 -383 488 -500 47 -23 86 -46 86 -53 0 -7 -28 -23 -62 -36 -121
-45 -240 -114 -300 -173 -82 -79 -103 -130 -103 -243 1 -79 4 -97 30 -148 61
-122 211 -225 429 -295 50 -16 91 -33 93 -39 5 -14 -30 -23 -88 -23 -119 0
-309 -48 -434 -108 -249 -121 -360 -343 -300 -600 60 -255 266 -401 671 -474
118 -21 157 -23 459 -23 297 0 342 2 450 22 321 59 528 153 685 312 94 95 139
164 175 268 125 357 -20 733 -347 903 -144 75 -196 82 -869 115 -331 16 -413
29 -487 78 -66 45 -94 102 -90 183 5 78 36 127 111 177 l55 37 164 0 c293 0
436 27 613 115 175 87 290 195 369 344 55 105 70 177 69 321 -1 210 -63 376
-188 505 l-61 64 59 26 c53 24 179 54 233 55 19 0 22 -7 26 -83 6 -85 31 -161
66 -201 30 -33 93 -56 158 -56 116 0 196 65 224 182 33 136 -32 272 -155 324
-43 18 -194 17 -285 -1z m-875 -176 c120 -45 218 -175 267 -354 19 -69 22
-107 22 -275 1 -175 -1 -203 -22 -275 -48 -166 -135 -286 -249 -342 -52 -25
-68 -28 -158 -28 -86 0 -107 3 -150 25 -205 100 -321 404 -286 752 14 145 32
220 73 307 32 68 104 148 156 175 97 50 238 57 347 15z m435 -2379 c97 -9 126
-17 186 -45 140 -68 194 -162 194 -338 0 -180 -43 -292 -154 -402 -87 -86
-179 -137 -312 -171 -313 -79 -716 -38 -923 95 -69 45 -148 132 -177 196 -35
76 -42 176 -20 286 41 198 146 301 386 374 l85 25 310 -4 c171 -2 362 -10 425
-16z"/>
<path d="M14577 3910 c-236 -27 -410 -115 -613 -312 -61 -60 -114 -108 -118
-108 -3 0 -6 80 -6 178 0 161 -2 181 -18 196 -18 15 -42 15 -383 -9 -200 -13
-394 -27 -431 -31 l-68 -6 0 -52 0 -52 58 -11 c177 -34 270 -105 325 -249 l22
-59 0 -820 c0 -768 -1 -823 -18 -867 -34 -88 -104 -127 -267 -148 -41 -5 -78
-10 -82 -10 -5 0 -8 -25 -8 -55 l0 -55 630 0 630 0 0 55 0 54 -37 6 c-172 26
-280 82 -326 169 l-22 41 -3 770 -2 769 36 53 c111 162 307 274 527 303 208
28 371 -58 461 -242 66 -133 66 -132 66 -943 l0 -730 -24 -52 c-40 -86 -102
-113 -318 -139 l-48 -5 0 -55 0 -54 630 0 630 0 0 55 0 54 -37 6 c-166 26
-263 78 -304 162 l-24 48 -6 760 c-6 812 -5 796 -58 948 -74 213 -234 363
-443 416 -90 23 -247 32 -351 21z"/>
<path d="M16927 3910 c-255 -29 -533 -165 -649 -318 -59 -76 -81 -136 -86
-228 -10 -187 78 -293 244 -294 127 0 221 44 275 127 25 40 29 57 29 114 0 37
-9 111 -20 164 -11 53 -20 107 -20 120 0 36 83 120 153 155 152 75 368 35 479
-89 100 -111 128 -213 135 -492 l5 -205 -100 -47 c-55 -25 -228 -89 -384 -142
-538 -183 -628 -225 -749 -345 -129 -127 -180 -261 -180 -475 -1 -194 44 -309
166 -424 278 -260 837 -195 1175 139 l69 68 45 -91 c77 -160 177 -235 345
-259 238 -33 450 63 547 247 55 104 104 297 104 407 l0 39 -62 -3 -63 -3 -3
-35 c-21 -299 -101 -407 -266 -358 -59 18 -128 90 -156 164 l-22 59 11 450 c6
248 13 520 16 605 5 193 -8 381 -34 483 -69 266 -238 408 -538 452 -128 18
-367 26 -466 15z m539 -1407 c-3 -164 -9 -374 -12 -467 l-7 -169 -86 -87 c-97
-98 -171 -141 -286 -165 -190 -40 -345 4 -422 119 -45 66 -64 133 -70 251 -16
305 137 519 478 667 57 24 389 145 408 147 2 1 1 -133 -3 -296z"/>
<path d="M21482 3909 c-192 -18 -399 -103 -549 -223 -316 -255 -486 -707 -443
-1176 54 -591 343 -973 829 -1096 209 -53 444 -55 631 -4 113 31 283 119 378
195 122 99 249 254 308 379 18 38 18 38 -6 56 -13 10 -36 25 -51 34 l-27 16
-68 -103 c-129 -193 -258 -298 -419 -343 -94 -26 -333 -31 -432 -9 -250 56
-418 218 -519 500 -58 164 -94 394 -94 607 l0 98 792 0 791 0 -6 128 c-13 294
-101 522 -264 686 -149 150 -344 233 -603 256 -126 11 -128 11 -248 -1z m300
-167 c180 -88 265 -287 293 -678 l5 -81 -61 -7 c-34 -3 -273 -6 -532 -6 l-470
0 7 77 c33 364 199 637 434 714 44 15 80 18 158 16 90 -2 107 -6 166 -35z"/>
<path d="M22929 3905 c-52 -17 -115 -73 -135 -121 -21 -49 -18 -147 5 -192 41
-80 111 -122 201 -122 68 0 119 21 161 67 49 52 61 89 57 169 -3 61 -8 79 -33
115 -54 77 -164 113 -256 84z m138 -36 c64 -24 123 -109 123 -179 0 -43 -29
-107 -61 -137 -97 -89 -245 -58 -300 62 -43 93 -2 198 96 249 35 18 101 21
142 5z"/>
<path d="M22900 3701 l0 -121 35 0 c33 0 35 2 35 35 0 24 5 35 14 35 8 0 24
-16 36 -35 19 -30 27 -35 61 -35 l39 0 -26 39 -26 39 21 21 c27 27 27 81 2
112 -17 21 -29 24 -105 28 l-86 3 0 -121z"/>
<path d="M6310 3899 c-201 -22 -423 -158 -603 -369 l-47 -55 0 186 c0 167 -2
188 -18 202 -17 16 -44 15 -383 -8 -200 -14 -392 -27 -426 -31 l-63 -6 0 -53
0 -53 65 -12 c149 -28 259 -111 307 -229 l23 -56 3 -819 c2 -716 0 -826 -13
-873 -21 -72 -66 -115 -142 -136 -48 -14 -174 -35 -215 -37 -5 0 -8 -25 -8
-55 l0 -55 680 0 680 0 0 54 0 55 -47 6 c-214 27 -320 59 -373 114 -66 69 -64
38 -68 873 -3 846 -10 767 73 870 102 130 248 215 413 242 28 5 32 3 32 -18 0
-13 -7 -43 -15 -66 -47 -134 18 -277 144 -314 61 -18 169 -21 220 -6 118 34
193 155 194 315 1 99 -20 152 -93 229 -84 88 -183 121 -320 105z"/>
<path d="M7440 3850 c-223 -16 -413 -29 -422 -29 -15 -1 -18 -10 -18 -54 l0
-52 90 -22 c179 -43 281 -110 333 -221 l22 -47 0 -850 0 -850 -27 -46 c-31
-53 -61 -75 -126 -94 -36 -11 -181 -35 -208 -35 -2 0 -4 -25 -4 -55 l0 -55
620 0 620 0 0 54 c0 59 1 58 -75 71 -73 12 -190 63 -222 97 -18 18 -41 53 -52
78 -20 44 -21 61 -21 1071 l0 1026 -23 21 c-14 13 -35 22 -53 21 -16 -1 -211
-14 -434 -29z"/>
<path d="M11770 3849 c-223 -15 -413 -28 -422 -28 -15 -1 -18 -10 -18 -54 l0
-52 90 -22 c189 -45 292 -118 342 -241 l23 -57 0 -820 0 -820 -27 -57 c-41
-89 -107 -120 -300 -143 l-48 -6 0 -55 0 -54 625 0 625 0 0 55 0 54 -37 6
c-78 12 -207 59 -247 90 -22 17 -52 51 -66 75 l-25 45 -3 1035 -2 1034 -22 23
c-14 15 -32 23 -52 22 -17 -1 -213 -14 -436 -30z"/>
</g>
</svg>
